<?xml version="1.0" encoding="utf-8"?>
<!-- Generator: Adobe Illustrator 23.0.2, SVG Export Plug-In . SVG Version: 6.00 Build 0)  -->
<svg version="1.1" id="Layer_1" xmlns="http://www.w3.org/2000/svg" xmlns:xlink="http://www.w3.org/1999/xlink" x="0px" y="0px"
	 viewBox="0 0 160.1 70.4" style="enable-background:new 0 0 160.1 70.4;" xml:space="preserve">
<style type="text/css">
	.st0{clip-path:url(#SVGID_2_);fill:#A40C34;}
</style>
<g>
	<defs>
		<rect id="SVGID_1_" y="0" width="160.1" height="70.4"/>
	</defs>
	<clipPath id="SVGID_2_">
		<use xlink:href="#SVGID_1_"  style="overflow:visible;"/>
	</clipPath>
	<path class="st0" d="M156.9,62.5h-1l1.1,3.9h0.5v3.8h1v-3.8h0.5l1.1-3.9h-1l-1.1,3.9L156.9,62.5z M155.5,62.5H152v0.7h1.3v7h1v-7
		h1.3V62.5z M151.5,62.5h-3.1v7.8h3.1v-0.7h-2.2v-2.9h2v-0.7h-2v-2.7h2.2V62.5z M147.1,62.5h-1v7.8h1V62.5z M141.3,66.4
		c0,2.6,0.2,4.1,1.9,4.1c1.5,0,1.9-0.8,1.9-3h-1c0.1,1.5-0.1,2.2-0.9,2.2c-0.9,0-0.9-1.2-0.9-3.3c0-2.1,0-3.3,0.9-3.3
		c1,0,1,1.4,0.8,2.1h1c0.2-1.5-0.3-2.8-1.8-2.8C141.5,62.3,141.3,63.8,141.3,66.4 M137.6,66.3c0-2.1,0-3.2,0.9-3.2
		c0.9,0,0.9,1.1,0.9,3.2c0,2.2,0,3.4-0.9,3.4C137.6,69.7,137.6,68.5,137.6,66.3 M136.6,66.3c0,2.5,0.2,4.2,1.9,4.2
		c1.7,0,1.9-1.7,1.9-4.2c0-2.5-0.2-4-1.9-4C136.8,62.3,136.6,63.8,136.6,66.3 M131.8,67.6c-0.3,1.2,0.2,2.8,1.9,2.8c1.4,0,2-0.9,2-2
		c0-2-2.8-3.1-2.8-4.3c0-0.6,0.2-1,0.8-1c0.9,0,0.9,1.2,0.8,1.9h1c0.2-1.2-0.2-2.6-1.8-2.6c-1.4,0-1.9,0.8-1.9,1.8
		c0,2,2.8,3,2.8,4.3c0,0.7-0.3,1.3-1,1.3c-1,0-1.1-1.4-0.9-2.1H131.8z M124.7,66.4c0,2.6,0.2,4.1,1.6,4.1c0.7,0,1.1-0.4,1.4-0.8
		l0.3,0.7h0.5v-4.3h-1.9v0.7h0.9v2.1c0,0.1-0.6,0.9-1,0.9c-0.8,0-0.8-1-0.8-3.3c0-2.2,0.1-3.3,0.9-3.3c1,0,0.9,1.3,0.8,1.9h1
		c0.1-1.3-0.3-2.6-1.8-2.6C125,62.3,124.7,63.8,124.7,66.4 M121.1,62.5h-1.2v7.8h1v-5.6h0l1.6,5.6h1.2v-7.8h-1v5.6h0L121.1,62.5z
		 M116,66.3c0-2.1,0-3.2,0.9-3.2c0.9,0,0.9,1.1,0.9,3.2c0,2.2,0,3.4-0.9,3.4C116,69.7,116,68.5,116,66.3 M115,66.3
		c0,2.5,0.2,4.2,1.9,4.2c1.7,0,1.9-1.7,1.9-4.2c0-2.5-0.2-4-1.9-4C115.2,62.3,115,63.8,115,66.3 M110.2,67.6
		c-0.3,1.2,0.2,2.8,1.9,2.8c1.4,0,2-0.9,2-2c0-2-2.8-3.1-2.8-4.3c0-0.6,0.2-1,0.8-1c0.9,0,0.9,1.2,0.8,1.9h1
		c0.2-1.2-0.2-2.6-1.8-2.6c-1.4,0-1.9,0.8-1.9,1.8c0,2,2.8,3,2.8,4.3c0,0.7-0.3,1.3-1,1.3c-1,0-1.1-1.4-0.9-2.1H110.2z M102.5,68.3
		c0-0.3,0.1-0.9,0.4-1.2c0.4,0.7,0.9,1.7,1.5,2.3c-0.2,0.2-0.5,0.3-0.8,0.3C103,69.7,102.5,69.1,102.5,68.3 M103.3,65.7
		c-0.1-0.4-0.2-1-0.2-1.4c0-0.8,0.2-1.3,0.6-1.3c0.5,0,0.6,0.7,0.5,1.3C104.1,65,103.8,65.4,103.3,65.7 M101.5,68.3
		c0,1,0.6,2.1,2.1,2.1c0.7,0,1.2-0.2,1.6-0.5c0.5,0.3,0.9,0.5,1.4,0.5c0.2,0,0.6-0.1,0.8-0.1v-0.9c-0.5,0.3-1.1,0.2-1.6-0.1
		c0.4-0.7,0.6-2.1,0.4-2.8h-1c0.1,0.6,0.1,1.7-0.2,2.2c-0.5-0.5-1-1.5-1.3-2.2c0.4-0.3,0.7-0.6,1-0.8c1.3-1.2,0.8-3.5-0.8-3.5
		c-1.1,0-1.7,0.8-1.7,2.1c0,0.5,0.1,1.3,0.4,1.9C101.9,66.7,101.4,67.4,101.5,68.3 M98.7,62.5h-3.1v7.8h3.1v-0.7h-2.2v-2.9h2v-0.7
		h-2v-2.7h2.2V62.5z M90.8,66.4c0,2.6,0.2,4.1,1.9,4.1c1.5,0,1.9-0.8,1.9-3h-1c0.1,1.5-0.1,2.2-0.9,2.2c-0.9,0-0.9-1.2-0.9-3.3
		c0-2.1,0-3.3,0.9-3.3c1,0,1,1.4,0.8,2.1h1c0.2-1.5-0.3-2.8-1.8-2.8C91,62.3,90.8,63.8,90.8,66.4 M87.1,62.5h-1.2v7.8h1v-5.6h0
		l1.6,5.6h1.2v-7.8h-1v5.6h0L87.1,62.5z M82.1,68.3l0.7-4.7h0l0.7,4.7H82.1z M82.3,62.5l-1.7,7.8h1l0.3-1.3h1.8l0.3,1.3h1l-1.7-7.8
		H82.3z M78.2,63.2c0.6,0,0.8,1.1,0.8,3.1s-0.2,3.1-0.8,3.1h-0.9v-6.3H78.2z M78.2,62.5h-1.9v7.8h1.9c1.4,0,1.8-1.3,1.8-3.9
		C80,63.8,79.6,62.5,78.2,62.5 M56.4,45.8c7,0,12,0,12,0c0.2,0,1.3-0.1,1.3-1.3s-1.1-1.3-1.3-1.3c0,0-5.7,0-13.5,0L56.4,45.8z
		 M37.9,56.4l-1.5,2.6c3.5,6.1,6,10.4,6,10.4c0.1,0.2,0.8,1,1.8,0.5c1-0.6,0.6-1.6,0.5-1.8C44.7,68.1,41.8,63.2,37.9,56.4 M8.8,58.8
		C8.7,59,8.3,60,9.3,60.6c1,0.6,1.7-0.3,1.8-0.5c0,0,2.9-5,6.8-11.7h-3.1C11.3,54.5,8.8,58.8,8.8,58.8 M13.3,24.4c-7,0-12,0-12,0
		c-0.2,0-1.3,0.1-1.3,1.3c0,1.2,1.1,1.3,1.3,1.3c0,0,5.7,0,13.5,0L13.3,24.4z M31.8,13.7l1.5-2.6c-3.5-6.1-6-10.4-6-10.4
		c-0.1-0.2-0.8-1-1.8-0.5c-1,0.6-0.6,1.6-0.5,1.8C25,2,27.9,7,31.8,13.7 M60.9,11.4c0.1-0.2,0.5-1.2-0.5-1.8c-1-0.6-1.7,0.3-1.8,0.5
		c0,0-2.9,5-6.8,11.7h3.1C58.4,15.7,60.8,11.4,60.9,11.4 M44.1,35.1c-1.6,2.7-3.1,5.4-4.6,8c-3.1,0-6.3,0-9.3,0
		c-1.6-2.7-3.1-5.4-4.6-8c1.6-2.7,3.1-5.4,4.6-8c3.1,0,6.3,0,9.3,0C41,29.8,42.6,32.5,44.1,35.1 M69.7,25.7L69.7,25.7
		c0-1-0.9-1.8-1.5-2.1c-1.2-0.5-2.5-0.1-3.7,0.2c-0.7,0.2-1.4,0.4-2.1,0.4c-0.8,0-1.9-0.6-2.6-0.6c-0.3,0-0.9,0.2-0.9,0.7
		c0,0,0,0,0,0c-1,0-2.9,0-5.5,0c0,0,0,0,0,0h-3.1c0,0,0,0,0,0c-1.9,0-4,0-6.2,0l1.5,2.6c1.1,0,2.1,0,3.1,0c-1,1.7-2,3.6-3.1,5.4
		c-1-1.8-2.1-3.6-3.1-5.4h0L41,24.4h0c-1.6-2.7-3.1-5.5-4.6-8c1.7-2.9,2.9-5.1,3.5-6.1l0,0c0.5,0.3,0.9-0.1,1.1-0.4
		c0.3-0.5,0.4-1.9,0.8-2.5c0.3-0.6,0.9-1.2,1.4-1.7C44,4.8,45,3.9,45.2,2.6c0.1-0.7-0.1-1.9-1-2.4c-0.9-0.5-2-0.1-2.6,0.3
		c-1.1,0.8-1.4,2.1-1.6,3.4c-0.2,0.7-0.4,1.4-0.7,2c-0.4,0.6-1.5,1.4-1.8,1.9c-0.2,0.3-0.3,0.9,0.2,1.1c0,0,0,0,0,0
		c-0.5,0.9-1.5,2.5-2.8,4.8c0,0,0,0,0,0l-1.5,2.6c0,0,0,0,0,0c-0.9,1.6-2,3.4-3.1,5.4h3.1c0.5-0.9,1.1-1.9,1.6-2.7
		c1,1.7,2.1,3.6,3.1,5.4c-2,0-4.1,0-6.2,0c0,0,0,0,0,0h-3.1c0,0,0,0,0,0c-3.2,0-6.3,0-9.3,0c-1.7-2.9-2.9-5.1-3.5-6.1c0,0,0,0,0,0
		c0.5-0.3,0.4-0.8,0.2-1.1c-0.3-0.5-1.4-1.3-1.8-1.9c-0.4-0.6-0.6-1.3-0.7-2c-0.3-1.2-0.6-2.6-1.6-3.3c-0.6-0.4-1.7-0.8-2.6-0.3
		c-0.9,0.5-1.1,1.7-1,2.4c0.2,1.3,1.2,2.2,2.1,3.1c0.5,0.5,1,1,1.4,1.7c0.4,0.7,0.4,2,0.8,2.5c0.2,0.3,0.6,0.7,1.1,0.4
		c0.5,0.9,1.5,2.5,2.8,4.8l1.5,2.6h0c0.9,1.6,2,3.4,3.1,5.4l1.5-2.6c-0.5-0.9-1.1-1.9-1.6-2.7c2,0,4.1,0,6.2,0
		c-1,1.8-2.1,3.6-3.1,5.4c0,0,0,0,0,0l-1.5,2.6c0,0,0,0,0,0c-1.6,2.7-3.2,5.5-4.6,8c-3.3,0-5.9,0-7,0c0,0,0,0,0,0
		c0-0.5-0.5-0.7-0.9-0.7c-0.6,0-1.8,0.6-2.6,0.6c-0.7,0-1.4-0.2-2.1-0.4c-1.2-0.4-2.5-0.8-3.7-0.2c-0.7,0.3-1.5,1-1.5,2.1
		s0.9,1.8,1.5,2.1c1.2,0.5,2.5,0.1,3.7-0.2C6,46,6.7,45.9,7.4,45.9c0.8,0,1.9,0.6,2.6,0.6c0.3,0,0.9-0.2,0.9-0.7c1,0,2.9,0,5.5,0
		c0,0,0,0,0,0h3.1l0,0c1.9,0,4,0,6.2,0l-1.5-2.6h-3.1c1-1.7,2.1-3.6,3.1-5.4c1,1.8,2.1,3.6,3.1,5.4h0l1.5,2.6h0
		c1.6,2.7,3.2,5.5,4.6,8c-1.7,2.9-2.9,5.1-3.5,6.1c0,0,0,0,0,0c-0.5-0.3-0.9,0.1-1.1,0.4c-0.3,0.5-0.4,1.9-0.8,2.5
		c-0.3,0.6-0.9,1.2-1.4,1.7c-0.9,0.9-1.9,1.8-2.1,3.1c-0.1,0.7,0.1,1.9,1,2.4c0.9,0.5,2,0.1,2.6-0.3c1.1-0.8,1.4-2.1,1.6-3.4
		c0.2-0.7,0.4-1.4,0.7-2c0.4-0.6,1.5-1.4,1.8-1.9c0.2-0.3,0.3-0.9-0.2-1.1c0.5-0.9,1.5-2.5,2.8-4.8l0,0l1.5-2.6c0,0,0,0,0,0
		c0.9-1.6,2-3.4,3.1-5.4h-3.1c-0.5,0.9-1.1,1.9-1.6,2.7c-1-1.7-2.1-3.5-3.1-5.4c2,0,4.1,0,6.2,0c0,0,0,0,0,0H41c0,0,0,0,0,0
		c3.2,0,6.3,0,9.3,0c1.7,2.9,2.9,5.1,3.5,6.1c-0.5,0.3-0.3,0.8-0.2,1.1c0.3,0.5,1.4,1.3,1.8,1.9c0.4,0.6,0.6,1.3,0.7,2
		c0.3,1.2,0.6,2.6,1.6,3.4c0.6,0.4,1.7,0.8,2.6,0.3s1.1-1.7,1-2.4c-0.2-1.3-1.2-2.2-2.1-3.1c-0.5-0.5-1.1-1-1.4-1.7
		c-0.4-0.7-0.4-2-0.8-2.5c-0.2-0.3-0.6-0.7-1.1-0.4c0,0,0,0,0,0c-0.5-0.9-1.5-2.5-2.8-4.8h0l-1.5-2.6h0c-0.9-1.6-2-3.4-3.1-5.4
		l-1.5,2.6c0.5,0.9,1.1,1.9,1.6,2.7c-2,0-4.1,0-6.2,0c1-1.8,2.1-3.6,3.1-5.4c0,0,0,0,0,0l1.5-2.6c0,0,0,0,0,0c1.6-2.7,3.2-5.5,4.6-8
		c3.3,0,5.9,0,7,0c0,0.5,0.5,0.7,0.9,0.7c0.6,0,1.8-0.6,2.6-0.6c0.7,0,1.4,0.2,2.1,0.4c1.2,0.4,2.5,0.8,3.7,0.2
		C68.8,27.5,69.7,26.8,69.7,25.7 M101.3,31.5h-25v3h2.3c1.2,0,1.9,0.5,1.9,1.5v17.2c0,1.1-0.6,2-2,2h-2.1v3h17.1v-3h-4.7
		c-1.8,0-2.5-0.6-2.5-2.1v-7.3h1.6c2.5,0,3.6,1.1,3.6,3.9v1.5h3V37.8h-3v1c0,2-0.8,3.9-3.3,3.9h-1.9v-8.3h4.5c5.5,0,6.9,1.4,7.7,8h3
		V31.5z M78.2,27.3h11.2v-2.7h-7.8v-8.9h7.1v-2.6h-7.1V4.9h7.8V2.2H78.2V27.3z M99.8,27.3h3.5V13.7c0-3.4-1.2-5-3.6-5
		c-2.6,0-4.1,1.5-5.2,3l-1.2-2.4h-1.8v18h3.5V14.2c0.6-1.4,2.1-2.9,3.5-2.9c1.2,0,1.4,1,1.4,4.2V27.3z M110.9,28.7h1.8
		c1.9,0,2.7,1.1,2.7,2.6c0,1.7-1.1,2.6-3.6,2.6c-2.5,0-3.6-0.9-3.6-2.6C108.1,29.6,109,28.7,110.9,28.7 M109.3,16
		c0-3.6,0.8-4.9,2.4-4.9c1.7,0,2.4,1.4,2.4,4.9c0,3.5-0.8,4.9-2.4,4.9C110.1,21,109.3,19.5,109.3,16 M108.2,24.7
		c0-0.5,0.3-1,1.2-1.7c0.6,0.3,1.5,0.5,2.4,0.5c3.9,0,6.1-2.8,6.1-7.4c0-3.1-0.8-5.3-2.7-6.5l3.5-5.7h-3.2l-2,5
		c-0.5-0.1-1.1-0.2-1.7-0.2c-3.9,0-6.1,2.7-6.1,7.4c0,2.7,0.6,4.9,2.2,6.2c-1.7,0.8-2.7,1.7-2.7,3.1c0,1.2,0.6,2.5,2.5,3.1
		c-1.9,0.6-2.7,1.9-2.7,3.2c0,3.6,3.2,4.6,6.8,4.6c3.6,0,6.8-1.4,6.8-5.4c0-3.5-2-5.1-5.9-5.1h-1.8C109,25.8,108.2,25.6,108.2,24.7
		 M116.4,48.7c0,4.8-1.7,7.3-4.9,7.3c-3.2,0-4.9-2.5-4.9-7.3c0-4.8,1.7-7.3,4.9-7.3C114.7,41.3,116.4,43.9,116.4,48.7 M121.7,48.7
		c0-6.4-4.3-10-10.3-10c-6,0-10.3,3.6-10.3,10c0,6.4,4.3,10,10.3,10C117.4,58.7,121.7,55.1,121.7,48.7 M120.3,27.3h3.5V1.6h-3.5
		V27.3z M126.7,5.8h3.5V1.6h-3.5V5.8z M126.7,27.3h3.5v-18h-3.5V27.3z M132,55.4c-1.1,0-1.6-0.4-1.6-1.6V31.5h-8.3v2.6h2
		c1.1,0,1.6,0.4,1.6,1.6v18.1c0,1.2-0.5,1.6-1.6,1.6h-2v2.6h11.8v-2.6H132z M135.7,13.5c0-2.5,2.3-2.4,2.3-2.4
		c2.1,0,2.5,1.9,2.1,3.5h3.4c0.9-3.9-1.7-6-5.5-6c-4.8,0-5.7,2.9-5.7,5c0,6.1,8.2,5.8,8.2,9.1c0,3-2.5,2.6-2.5,2.6
		c-1.8,0-3-1.6-2.2-4h-3.7c-1.1,4.6,2.2,6.6,5.9,6.6c5.2,0,6.1-3.3,6.1-5.5C144.2,16.5,135.7,17,135.7,13.5 M154.4,27.3h3.5V13.7
		c0-3.4-1-5-3.4-5c-2,0-4,1.5-4.9,2.3l-0.1,0V1.6H146v25.7h3.5V13.6c0.9-0.9,2.1-2.3,3.5-2.3c1,0,1.4,1.2,1.4,4.2V27.3z M148.6,58.1
		h11.5v-2.6c-1.7,0-2.9-0.4-3.7-1.6l-5.3-7.3l4.3-3.4c1-0.8,2.3-1.2,3.7-1.2v-2.6h-11.9v2.6h2.7c0.4,0,0.9,0.2,0.9,0.5
		s-0.2,0.6-0.6,0.9l-6.4,5.2v-17h-8.5v2.6h2.2c1.1,0,1.6,0.4,1.6,1.6v18.1c0,1.2-0.5,1.6-1.6,1.6h-2.2v2.6h11.4v-2.6h-1.3
		c-1.1,0-1.6-0.4-1.6-1.6v-1.4l3.7-2.9l3.1,4.4c0.3,0.4,0.4,0.6,0.4,1c0,0.4-0.2,0.6-0.7,0.6h-1.8V58.1z"/>
</g>
</svg>
